<svg xmlns="http://www.w3.org/2000/svg" xmlns:xlink="http://www.w3.org/1999/xlink" viewBox="0,0,256,256" width="80px" height="80px" fill-rule="nonzero"><g fill="none" fill-rule="nonzero" stroke="none" stroke-width="1" stroke-linecap="butt" stroke-linejoin="miter" stroke-miterlimit="10" stroke-dasharray="" stroke-dashoffset="0" font-family="none" font-weight="none" font-size="none" text-anchor="none" style="mix-blend-mode: normal"><g transform="scale(3.2,3.2)"><path d="M4.5,4.5h71v71h-71z" fill="#1972e6"></path><path d="M75,5v70h-70v-70h70M76,4h-72v72h72v-72z" fill="#4e7ab5"></path><path d="M16,32.154h11.077v22.015v9.831h-11.077zM21.538,28.923v0c-3.323,0 -5.538,-2.354 -5.538,-5.262c0,-2.908 2.215,-5.123 5.538,-5.123c3.323,0 5.4,2.215 5.538,5.123c0.001,2.908 -2.076,5.262 -5.538,5.262zM64.054,64h-10.935c0,0 0,-16.539 0,-17.77c0,-1.231 -0.137,-5.468 -4.784,-5.468c-4.101,0 -4.784,3.964 -4.784,5.468c0,1.504 0,17.77 0,17.77h-10.936v-31.439h10.935v4.237c0,0 2.187,-4.237 8.611,-4.237c6.561,0 11.892,4.511 11.892,13.669v17.77z" fill="#ffffff"></path></g></g></svg>